<svg xmlns="http://www.w3.org/2000/svg" width="14" height="17" fill="none" viewBox="0 0 14 17">
  <path fill="#BE561C" d="M8.4 4.958V.326a4.87 4.87 0 0 1 1.726 1.126l2.438 2.47a4.932 4.932 0 0 1 1.114 1.745H9.1a.705.705 0 0 1-.7-.709ZM14 7.427v6.031C14 15.411 12.43 17 10.5 17h-7C1.57 17 0 15.411 0 13.458V3.542C0 1.589 1.57 0 3.5 0h3.16c.115 0 .227.01.34.017v4.941c0 1.172.942 2.125 2.1 2.125h4.883c.008.114.017.228.017.344ZM4.9 12.75c-.004-.927-1.396-.926-1.4 0v1.417c.004.926 1.396.925 1.4 0V12.75Zm2.8-3.542c-.004-.926-1.396-.925-1.4 0v4.959c.004.926 1.396.925 1.4 0V9.208Zm2.8 2.125c-.004-.926-1.396-.925-1.4 0v2.834c.004.926 1.396.925 1.4 0v-2.834Z"/>
</svg>
