<svg xmlns="http://www.w3.org/2000/svg" width="17" height="17" fill="none" viewBox="0 0 17 17">
  <g clip-path="url(#a)">
    <path fill="#BE561C" d="M8.5 5.552 2.833 7.44V5.667a2.125 2.125 0 0 1 2.125-2.125h7.084a2.125 2.125 0 0 1 2.125 2.125V7.44L8.5 5.551Zm7.083 9.323c0 .244-.483.708-1.24.708a1.447 1.447 0 0 1-1.146-.495 7.884 7.884 0 0 0 2.386-5.644v-.038L9.208 7.281v7.594H7.792V7.282L1.417 9.407v.038a7.885 7.885 0 0 0 2.39 5.643 1.45 1.45 0 0 1-1.15.495c-.772 0-1.24-.491-1.24-.708H0C0 16.027 1.217 17 2.656 17a2.97 2.97 0 0 0 1.948-.708 3.055 3.055 0 0 0 3.896.01 3.055 3.055 0 0 0 3.896-.01 2.971 2.971 0 0 0 1.947.708c1.44 0 2.657-.973 2.657-2.125h-1.417Zm-4.25-13.458A1.417 1.417 0 0 0 9.917 0H7.083a1.417 1.417 0 0 0-1.416 1.417v.708h5.666v-.708Z"/>
  </g>
  <defs>
    <clipPath id="a">
      <path fill="#fff" d="M0 0h17v17H0z"/>
    </clipPath>
  </defs>
</svg>
