<svg xmlns="http://www.w3.org/2000/svg" width="17" height="17" fill="none" viewBox="0 0 17 17">
  <g clip-path="url(#a)">
    <path fill="#BE561C" d="M8.5 11.333a2.833 2.833 0 1 1 0-5.665 2.833 2.833 0 0 1 0 5.665Zm-4.475 0H.708A.708.708 0 0 1 0 10.625a4.266 4.266 0 0 1 3.634-4.19.708.708 0 0 1 .78.896 4.205 4.205 0 0 0 .251 2.99.708.708 0 0 1-.637 1.012h-.003ZM12.042 17H4.958a.708.708 0 0 1-.708-.708 4.25 4.25 0 1 1 8.5 0 .708.708 0 0 1-.708.708Zm.708-11.333a2.833 2.833 0 1 1 0-5.667 2.833 2.833 0 0 1 0 5.667Zm-8.5 0A2.833 2.833 0 1 1 4.25 0a2.833 2.833 0 0 1 0 5.667Zm12.042 5.666h-3.318a.707.707 0 0 1-.637-1.013 4.205 4.205 0 0 0 .246-2.989.709.709 0 0 1 .783-.897A4.265 4.265 0 0 1 17 10.625a.708.708 0 0 1-.708.708Z"/>
  </g>
  <defs>
    <clipPath id="a">
      <path fill="#fff" d="M0 0h17v17H0z"/>
    </clipPath>
  </defs>
</svg>
